<svg width="16" height="16" viewBox="0 0 16 16" fill="none" xmlns="http://www.w3.org/2000/svg">
<path fill-rule="evenodd" clip-rule="evenodd" d="M7.54246 0.693359C7.11896 0.693359 6.75187 0.986542 6.65824 1.39956L6.40428 2.51974C6.00001 2.63731 5.61436 2.79831 5.25277 2.99725L4.28103 2.38468C3.92277 2.15884 3.45589 2.2111 3.15643 2.51056L2.50993 3.15706C2.21047 3.45652 2.15821 3.9234 2.38405 4.28166L2.99683 5.25375C2.79807 5.61524 2.63721 6.00077 2.51976 6.4049L1.39969 6.65883C0.986664 6.75247 0.693481 7.11955 0.693481 7.54306V8.45734C0.693481 8.88085 0.986664 9.24794 1.39969 9.34157L2.51989 9.59553C2.63741 9.99977 2.79836 10.3854 2.99723 10.747L2.38455 11.7189C2.15871 12.0772 2.21097 12.544 2.51043 12.8435L3.15693 13.49C3.45639 13.7895 3.92327 13.8417 4.28153 13.6159L5.25352 13.0032C5.61489 13.2019 6.00029 13.3628 6.40428 13.4802L6.65824 14.6004C6.75187 15.0135 7.11896 15.3066 7.54246 15.3066H8.45675C8.88025 15.3066 9.24734 15.0135 9.34098 14.6004L9.59484 13.4807C9.99917 13.3632 10.3849 13.2023 10.7466 13.0034L11.7185 13.6161C12.0767 13.8419 12.5436 13.7897 12.8431 13.4902L13.4896 12.8437C13.789 12.5442 13.8413 12.0774 13.6155 11.7191L13.003 10.7475C13.202 10.3858 13.3631 9.99993 13.4807 9.59546L14.6006 9.34157C15.0136 9.24794 15.3068 8.88085 15.3068 8.45734V7.54306C15.3068 7.11955 15.0136 6.75247 14.6006 6.65883L13.4808 6.40497C13.3633 6.00061 13.2023 5.61486 13.0034 5.25318L13.616 4.28145C13.8418 3.92319 13.7895 3.4563 13.4901 3.15684L12.8436 2.51034C12.5441 2.21088 12.0772 2.15862 11.719 2.38446L10.7473 2.99699C10.3854 2.79794 9.99945 2.63688 9.59484 2.51933L9.34098 1.39956C9.24734 0.986541 8.88025 0.693359 8.45675 0.693359H7.54246ZM5.24869 4.06645C5.81051 3.67272 6.46055 3.39629 7.16325 3.27272L7.54246 1.60003H8.45675L8.83591 3.27248C9.53897 3.3959 10.1893 3.67233 10.7514 4.06616L12.2025 3.15145L12.849 3.79795L11.9342 5.24902C12.3279 5.81095 12.6043 6.4611 12.7277 7.16391L14.4001 7.54306V8.45734L12.7276 8.8365C12.6041 9.53942 12.3276 10.1896 11.9338 10.7516L12.8485 12.2026L12.202 12.8491L10.7508 11.9343C10.1888 12.3279 9.53869 12.6041 8.83591 12.7275L8.45675 14.4H7.54246L7.16325 12.7273C6.46082 12.6037 5.81102 12.3275 5.24935 11.934L3.79804 12.8489L3.15154 12.2024L4.0664 10.7511C3.67276 10.1893 3.39642 9.53925 3.27292 8.83658L1.60015 8.45734V7.54306L3.27285 7.16384C3.39626 6.46127 3.67247 5.81132 4.06595 5.24953L3.15104 3.79817L3.79754 3.15167L5.24869 4.06645ZM9.62675 7.99985C9.62675 8.89819 8.89851 9.62643 8.00017 9.62643C7.10184 9.62643 6.3736 8.89819 6.3736 7.99985C6.3736 7.10152 7.10184 6.37328 8.00017 6.37328C8.89851 6.37328 9.62675 7.10152 9.62675 7.99985ZM10.5867 7.99985C10.5867 9.42838 9.4287 10.5864 8.00017 10.5864C6.57165 10.5864 5.4136 9.42838 5.4136 7.99985C5.4136 6.57133 6.57165 5.41328 8.00017 5.41328C9.4287 5.41328 10.5867 6.57133 10.5867 7.99985Z" fill="#9CA3AF"/>
</svg>
